# xmcd CD database file
#
# Track frame offsets:
#	150
#	28074
#	69344
#	106521
#	137395
#	160998
#	198135
#	237345
#	268429
#
# Disc length: 4116 seconds
#
# Revision: 0
# Processed by: cddbd v1.5.2PL0 Copyright (c) Steve Scherf et al.
# Submitted via: CDex 1.70beta2
#
DISCID=73101209
DTITLE=Newyorkestra Big Band - Urban Soundscapes
DYEAR=2005
DGENRE=Jazz
TTITLE0=Out of the Frying Pan
TTITLE1=Digital Life
TTITLE2=As Always
TTITLE3=One Finger Snap
TTITLE4=Sink or Swim
TTITLE5=Portland Painter
TTITLE6=The Night Shift
TTITLE7=Gregory Is Here
TTITLE8=Eighty One/It's About That Time
EXTD=YEAR: 2005
EXTT0=
EXTT1=
EXTT2=
EXTT3=
EXTT4=
EXTT5=
EXTT6=
EXTT7=
EXTT8=
PLAYORDER=
